<svg width="127" height="30" viewBox="0 0 127 30" fill="none" xmlns="http://www.w3.org/2000/svg">
<path fill-rule="evenodd" clip-rule="evenodd" d="M32.7383 16.8516C33.7344 16.8516 34.6133 16.0254 34.6133 14.9707C34.6778 14.4434 34.4376 13.9746 33.9688 13.5645L30.8751 10.8398V3.75C30.8751 2.71465 30.0372 1.875 29.0001 1.875H27.1251C26.088 1.875 25.2501 2.71465 25.2501 3.75V5.90039L19.0098 0.410977C18.6524 0.117422 18.1837 0 17.7735 0C17.3633 0 16.8946 0.0587109 16.4844 0.469687L1.46159 13.5645C1.05108 13.9746 0.875061 14.4434 0.875061 14.9707C0.875061 16.0254 1.69655 16.8516 2.75299 16.8516H4.63033V26.25C4.63033 28.3184 6.30963 30 8.38092 30H27.1544C29.2286 30 30.9102 28.3125 30.9044 26.2324L30.8633 16.8516H32.7383ZM10.4455 16.4744V16.6524C10.4455 17.9255 10.9427 19.1434 11.8189 20.0116L17.0339 25.187C17.2503 25.4017 17.536 25.5214 17.8333 25.5214C18.1305 25.5214 18.4162 25.4017 18.6326 25.187L23.8474 20.0116C24.7247 19.1434 25.221 17.9255 25.221 16.6524V16.4744C25.221 14.33 23.7637 12.501 21.7753 12.1488C20.4594 11.916 19.1203 12.3719 18.1536 13.3735L17.8333 13.741L17.487 13.3735C16.5462 12.3719 15.1812 11.916 13.8912 12.1488C11.9034 12.501 10.4455 14.33 10.4455 16.4744Z" fill="#FF385C"/>
<path d="M42.08 18.22C42.14 17.14 42.8 16.3 43.92 16.3C45.2 16.3 45.74 17.16 45.74 18.26V24H48.4V17.8C48.4 15.64 47.24 13.9 44.74 13.9C43.8 13.9 42.72 14.22 42.08 14.98V9.52H39.42V24H42.08V18.22ZM54.2197 21.88C52.9197 21.88 51.7197 20.92 51.7197 19.08C51.7197 17.22 52.9197 16.28 54.2197 16.28C55.5197 16.28 56.7197 17.22 56.7197 19.08C56.7197 20.94 55.5197 21.88 54.2197 21.88ZM54.2197 13.86C51.2797 13.86 49.0597 16.04 49.0597 19.08C49.0597 22.1 51.2797 24.3 54.2197 24.3C57.1597 24.3 59.3797 22.1 59.3797 19.08C59.3797 16.04 57.1597 13.86 54.2197 13.86ZM62.8394 24V18.24C62.8394 17.16 63.5194 16.3 64.6794 16.3C65.8794 16.3 66.4194 17.1 66.4194 18.16V24H69.0594V18.24C69.0594 17.18 69.7394 16.3 70.8794 16.3C72.0994 16.3 72.6194 17.1 72.6194 18.16V24H75.1994V17.62C75.1994 14.98 73.4594 13.88 71.6394 13.88C70.3394 13.88 69.2994 14.32 68.5194 15.52C68.0194 14.46 66.9394 13.88 65.5994 13.88C64.5194 13.88 63.2594 14.4 62.7194 15.36V14.16H60.1794V24H62.8394ZM78.5342 17.96C78.5942 17.06 79.3542 16.02 80.7342 16.02C82.2542 16.02 82.8942 16.98 82.9342 17.96H78.5342ZM83.1942 20.52C82.8742 21.4 82.1942 22.02 80.9542 22.02C79.6342 22.02 78.5342 21.08 78.4742 19.78H85.5142C85.5142 19.74 85.5542 19.34 85.5542 18.96C85.5542 15.8 83.7342 13.86 80.6942 13.86C78.1742 13.86 75.8542 15.9 75.8542 19.04C75.8542 22.36 78.2342 24.3 80.9342 24.3C83.3542 24.3 84.9142 22.88 85.4142 21.18L83.1942 20.52ZM88.9289 24V22.8C89.4489 23.64 90.4889 24.24 91.8489 24.24C94.6489 24.24 96.4889 22.02 96.4889 19.04C96.4889 16.12 94.8289 13.9 91.9489 13.9C90.4889 13.9 89.4089 14.54 88.9689 15.24V9.52H86.3489V24H88.9289ZM93.8289 19.06C93.8289 20.86 92.7489 21.86 91.3889 21.86C90.0489 21.86 88.9289 20.84 88.9289 19.06C88.9289 17.26 90.0489 16.28 91.3889 16.28C92.7489 16.28 93.8289 17.26 93.8289 19.06ZM99.955 18.34C99.955 17.2 100.635 16.3 101.795 16.3C103.075 16.3 103.615 17.16 103.615 18.26V24H106.275V17.8C106.275 15.64 105.155 13.9 102.715 13.9C101.655 13.9 100.475 14.36 99.875 15.38V14.16H97.295V24H99.955V18.34ZM110.255 24V22.8C110.775 23.64 111.815 24.24 113.175 24.24C115.975 24.24 117.815 22.02 117.815 19.04C117.815 16.12 116.155 13.9 113.275 13.9C111.815 13.9 110.735 14.54 110.295 15.24V9.52H107.675V24H110.255ZM115.155 19.06C115.155 20.86 114.075 21.86 112.715 21.86C111.375 21.86 110.255 20.84 110.255 19.06C110.255 17.26 111.375 16.28 112.715 16.28C114.075 16.28 115.155 17.26 115.155 19.06Z" fill="#FF385C"/>
</svg>
