<svg width="35" height="30" viewBox="0 0 35 30" fill="none" xmlns="http://www.w3.org/2000/svg">
<path fill-rule="evenodd" clip-rule="evenodd" d="M32.7383 16.8516C33.7344 16.8516 34.6133 16.0254 34.6133 14.9707C34.6778 14.4434 34.4376 13.9746 33.9688 13.5645L30.8751 10.8398V3.75C30.8751 2.71465 30.0372 1.875 29.0001 1.875H27.1251C26.088 1.875 25.2501 2.71465 25.2501 3.75V5.90039L19.0098 0.410977C18.6524 0.117422 18.1837 0 17.7735 0C17.3633 0 16.8946 0.0587109 16.4844 0.469687L1.46159 13.5645C1.05108 13.9746 0.875061 14.4434 0.875061 14.9707C0.875061 16.0254 1.69655 16.8516 2.75299 16.8516H4.63033V26.25C4.63033 28.3184 6.30963 30 8.38092 30H27.1544C29.2286 30 30.9102 28.3125 30.9044 26.2324L30.8633 16.8516H32.7383ZM10.4455 16.4744V16.6524C10.4455 17.9255 10.9427 19.1434 11.8189 20.0116L17.0339 25.187C17.2503 25.4017 17.536 25.5214 17.8333 25.5214C18.1305 25.5214 18.4162 25.4017 18.6326 25.187L23.8474 20.0116C24.7247 19.1434 25.221 17.9255 25.221 16.6524V16.4744C25.221 14.33 23.7637 12.501 21.7753 12.1488C20.4594 11.916 19.1203 12.3719 18.1536 13.3735L17.8333 13.741L17.487 13.3735C16.5462 12.3719 15.1812 11.916 13.8912 12.1488C11.9034 12.501 10.4455 14.33 10.4455 16.4744Z" fill="#FF385C"/>
</svg>
